HIERARCHY
ROOT hip
{
	OFFSET 0.000000 0.000000 0.000000 
	CHANNELS 6 Xposition Yposition Zposition Xrotation Zrotation Yrotation
	JOINT abdomen
	{
		OFFSET 0.000000 3.402643 0.000000 
		CHANNELS 3 Xrotation Zrotation Yrotation
		JOINT chest
		{
			OFFSET 0.000000 8.438565 -0.680529 
			CHANNELS 3 Xrotation Zrotation Yrotation
			JOINT neck
			{
				OFFSET 0.000000 10.207942 -0.272212 
				CHANNELS 3 Xrotation Zrotation Yrotation
				JOINT head
				{
					OFFSET 0.000000 3.130431 0.000000 
					CHANNELS 3 Xrotation Zrotation Yrotation
					End Site
					{
						OFFSET 0.000000 3.130435 0.000000 
					}
				}
			}
			JOINT lCollar
			{
				OFFSET 3.470700 6.669187 -0.816635 
				CHANNELS 3 Yrotation Zrotation Xrotation
				JOINT lShldr
				{
					OFFSET 3.198488 0.000000 0.000000 
					CHANNELS 3 Zrotation Yrotation Xrotation
					JOINT lForeArm
					{
						OFFSET 10.139888 0.000000 0.000000 
						CHANNELS 3 Yrotation Zrotation Xrotation
						JOINT lHand
						{
							OFFSET 8.370511 0.000000 0.000000 
							CHANNELS 3 Zrotation Yrotation Xrotation
							End Site
							{
								OFFSET 4.083176 0.000000 0.000000 
							}
						}
					}
				}
			}
			JOINT rCollar
			{
				OFFSET -3.470700 6.669187 -0.816635 
				CHANNELS 3 Yrotation Zrotation Xrotation
				JOINT rShldr
				{
					OFFSET -3.198488 0.000000 0.000000 
					CHANNELS 3 Zrotation Yrotation Xrotation
					JOINT rForeArm
					{
						OFFSET -10.139888 0.000000 0.000000 
						CHANNELS 3 Yrotation Zrotation Xrotation
						JOINT rHand
						{
							OFFSET -8.370511 0.000000 0.000000 
							CHANNELS 3 Zrotation Yrotation Xrotation
							End Site
							{
								OFFSET -4.083176 0.000000 0.000000 
							}
						}
					}
				}
			}
		}
	}
	JOINT lThigh
	{
		OFFSET 5.308129 -1.633274 1.361059 
		CHANNELS 3 Xrotation Zrotation Yrotation
		JOINT lShin
		{
			OFFSET -2.041588 -20.007561 0.000000 
			CHANNELS 3 Xrotation Zrotation Yrotation
			JOINT lFoot
			{
				OFFSET 0.000000 -19.190928 -1.224953 
				CHANNELS 3 Xrotation Yrotation Zrotation
				End Site
				{
					OFFSET 0.000000 -2.449906 4.627600 
				}
			}
		}
	}
	JOINT rThigh
	{
		OFFSET -5.308129 -1.633274 1.361059 
		CHANNELS 3 Xrotation Zrotation Yrotation
		JOINT rShin
		{
			OFFSET 2.041588 -20.007561 0.000000 
			CHANNELS 3 Xrotation Zrotation Yrotation
			JOINT rFoot
			{
				OFFSET 0.000000 -19.190928 -1.224953 
				CHANNELS 3 Xrotation Yrotation Zrotation
				End Site
				{
					OFFSET 0.000000 -2.449906 4.627600 
				}
			}
		}
	}
}
MOTION
Frames: 20
Frame Time: 0.016667
-0.135124 49.210026 1.222418 -12.300761 -2.045823 3.986712 34.580204 1.402151 -4.376078 -13.291689 15.584159 -4.248066 -8.315104 -3.261536 -0.606710 5.413996 -9.755595 -0.427087 -6.065468 -5.965765 -0.009658 -78.868607 5.269385 8.718584 -47.037769 4.234310 55.898083 -13.422833 18.098293 -4.247997 10.712804 -0.519393 -0.009595 69.052765 -14.041912 -4.280251 31.403547 -3.740635 46.488209 -5.118941 -1.497911 0.134123 -2.324528 10.662793 5.254573 74.098427 1.420912 -4.135573 6.142331 -1.966691 -11.989229 -6.933558 1.444845 -6.575297 33.153862 1.004172 2.688096 -5.514147 1.281292 12.312392 
-0.187296 49.325378 2.064237 -12.306540 -1.871814 3.341568 34.766460 0.993803 -3.887149 -13.428817 15.185358 -3.652825 -7.612854 -3.671156 -1.135490 4.464700 -9.080832 -0.940766 -5.958065 -6.073205 -0.009658 -78.491287 6.312421 9.813016 -46.307392 4.219269 55.556034 -13.168184 18.001400 -4.143715 11.064391 -0.372968 -0.009584 68.846611 -12.687228 -2.312950 32.384903 -3.655534 44.768791 -5.631773 -2.906808 0.276374 -4.871750 10.484539 5.838728 75.754974 1.535548 -4.152983 10.656876 -2.401460 -11.788831 -6.210768 1.376563 -6.400718 34.052860 0.955299 2.729264 -5.996752 1.576237 12.360349 
-0.183560 49.456673 2.863287 -12.186481 -2.078264 2.393837 34.799706 1.023978 -3.008204 -13.528031 14.455334 -2.863523 -7.036329 -4.197453 -1.664994 3.998490 -8.766565 -1.502751 -6.221756 -6.190348 -0.009652 -78.293213 7.488153 9.274419 -45.539631 4.275597 57.031986 -13.533525 17.166651 -4.061201 11.288981 -0.480427 -0.009576 68.580971 -10.821011 -0.465599 32.874744 -3.633365 44.455910 -5.784857 -2.119058 0.204689 -7.352500 10.495915 6.448900 76.115082 1.564665 -4.163962 14.655682 -1.783425 -11.840742 -5.679977 1.620449 -5.465453 34.873329 0.935625 2.764586 -6.317858 2.108768 12.420419 
-0.179828 49.587959 3.662292 -12.059622 -2.284429 1.446110 34.823734 1.063718 -2.129265 -13.635956 13.721842 -2.070102 -6.460178 -4.713352 -2.195345 3.535822 -8.451627 -2.064771 -6.475684 -6.317258 -0.009644 -78.110146 8.669640 8.741667 -44.780392 4.359641 58.509960 -13.902257 16.340952 -3.981994 11.513672 -0.595703 0.000102 68.380852 -8.936897 1.372380 33.363972 -3.602672 44.137135 -5.948424 -1.332713 0.119190 -9.841178 10.523810 7.055583 76.465446 1.593792 -4.174341 18.677073 -1.160542 -11.918852 -5.134958 1.844994 -4.546182 35.692917 0.886670 2.829611 -6.624591 2.622578 12.517585 
-0.114197 49.735497 4.491201 -11.908141 -2.363166 0.566730 34.670319 1.112955 -1.386836 -13.575770 12.721031 -1.381233 -6.280272 -5.063857 -2.421653 3.819120 -7.747215 -2.396133 -6.602558 -5.858253 -0.009650 -78.324257 9.792474 7.893843 -43.870396 4.379158 59.040634 -13.822654 15.753440 -3.830161 11.630755 -0.626969 -0.009565 68.027229 -6.891729 3.287146 34.478146 -3.626203 44.419544 -4.234606 -3.801818 0.232031 -11.911666 10.300108 7.267931 75.295319 1.525401 -4.171969 18.442621 -1.871835 -11.699158 -4.278922 1.433718 -4.817210 35.751118 0.886723 2.842237 -6.233580 4.147535 12.661434 
-0.048568 49.883022 5.320074 -11.754774 -2.421841 -0.303289 34.517979 1.162034 -0.654360 -13.520702 11.717904 -0.697113 -6.098031 -5.404411 -2.648904 4.094213 -7.042885 -2.726561 -6.729433 -5.399247 -0.009655 -78.570000 10.911260 7.031514 -42.958965 4.407413 59.571487 -13.742842 15.177445 -3.672608 11.747936 -0.666051 -0.009560 67.740532 -4.840601 5.173410 35.591057 -3.651540 44.691311 -2.522793 -6.283865 0.256518 -13.978662 10.072863 7.477468 74.127274 1.428755 -4.140606 18.220695 -2.602927 -11.456226 -3.449918 1.033656 -5.096324 35.819893 0.882665 2.834720 -5.812903 5.698763 12.825150 
0.000932 49.987934 6.108688 -11.633610 -2.548412 -1.036303 34.589073 1.132812 -0.039055 -13.779760 11.484336 -0.149385 -5.578164 -6.428083 -2.771566 4.021504 -5.870726 -3.033701 -6.651344 -5.614103 -0.009653 -78.825386 11.790076 5.913477 -41.660831 4.419957 59.803284 -13.565518 14.788089 -3.533664 12.177588 -0.880966 -0.009545 66.838676 -3.452418 6.700583 36.553757 -3.515690 42.820381 -3.190746 -6.260964 0.328105 -15.722003 9.765261 7.278413 71.642075 1.272622 -4.105923 18.260073 -3.410645 -11.214754 -2.778383 1.345180 -3.348030 36.142735 0.882616 2.831504 -5.939613 4.814209 12.737696 
0.050431 50.092831 6.897302 -11.509959 -2.664760 -1.759997 34.649872 1.113225 0.576443 -14.043396 11.249736 0.398361 -5.062343 -7.451454 -2.905902 3.935344 -4.699112 -3.331540 -6.563488 -5.819197 -0.009652 -79.096169 12.658566 4.783135 -40.359108 4.423547 60.041405 -13.379405 14.398659 -3.394463 12.607240 -1.095882 -0.009528 65.977753 -2.031676 8.199015 37.518032 -3.402702 40.953457 -3.869598 -6.246260 0.411662 -17.459749 9.452351 7.088717 69.168037 1.088096 -4.054895 18.296444 -4.230140 -10.946062 -2.107992 1.629455 -1.625965 36.484325 0.847692 2.857039 -6.036748 3.901437 12.633922 
0.088487 50.111637 7.727182 -11.767048 -2.624736 -2.356412 34.947769 0.927594 0.996279 -13.797334 10.789732 0.896274 -4.839622 -7.393829 -4.048106 3.260350 -5.063223 -4.402097 -6.524458 -6.004750 -0.009649 -78.938667 13.121977 3.784499 -39.069935 4.441138 60.274666 -13.221398 14.121519 -3.288279 12.714677 -0.998243 -0.009525 64.952835 -0.007872 9.032719 38.290863 -3.505412 42.437077 -4.224209 -5.134006 0.358693 -18.255209 8.941298 6.685049 65.601318 0.844620 -3.995446 17.845356 -4.816987 -10.814020 -1.305908 1.432415 -1.254633 37.480068 0.798664 2.910369 -6.362125 4.114885 12.699604 
0.126539 50.130444 8.557064 -12.024460 -2.594213 -2.952382 35.252842 0.741958 1.425915 -13.547824 10.329015 1.400160 -4.608046 -7.333321 -5.199967 2.589351 -5.444138 -5.455153 -6.485429 -6.200069 -0.009646 -78.793587 13.592402 2.776290 -37.780518 4.455971 60.495941 -13.074135 13.843406 -3.188270 12.822116 -0.900605 -0.009521 63.954697 2.037270 9.830698 39.063244 -3.585458 43.913429 -4.580927 -4.021138 0.312086 -19.050325 8.416826 6.311737 62.014915 0.610801 -3.914313 17.421694 -5.393230 -10.662637 -0.485014 1.223045 -0.894604 38.456165 0.749801 2.962117 -6.679292 4.333206 12.736324 
0.153137 50.108471 9.411672 -12.263268 -2.661297 -3.412231 35.479538 0.673514 1.748270 -13.182621 9.907503 1.766118 -4.671965 -7.544170 -5.458064 2.371046 -5.227649 -5.746822 -6.172948 -6.307544 -0.009650 -78.476563 13.732244 1.765374 -36.538994 4.484091 61.291214 -13.509907 13.411977 -3.188797 12.988099 -1.095945 -0.009514 63.437752 4.002925 10.011244 39.849613 -3.617518 44.408600 -4.687603 -3.835619 0.304489 -19.190964 8.042357 5.783584 57.268955 0.307805 -3.765440 16.732704 -4.236075 -11.057659 0.611076 0.765564 -1.659927 38.846863 0.729957 2.974777 -6.921109 5.631278 12.930907 
0.179732 50.086494 10.266274 -12.510756 -2.728144 -3.871629 35.715130 0.605077 2.060741 -12.821958 9.466179 2.140064 -4.733950 -7.754686 -5.717510 2.149505 -5.001532 -6.039461 -5.860467 -6.415018 -0.009654 -78.152924 13.881189 0.770301 -35.296597 4.520356 62.073154 -13.947772 12.988520 -3.194402 13.154084 -1.291285 -0.009507 62.927242 5.971493 10.166865 40.627167 -3.648247 44.905411 -4.794230 -3.640413 0.294762 -19.331247 7.673321 5.257529 52.531540 0.005656 -3.603247 16.026783 -3.028734 -11.441751 1.747842 0.331933 -2.420669 39.207176 0.710287 3.015019 -7.157102 6.899802 13.128516 
0.185324 50.042309 11.066126 -11.906618 -3.057622 -4.342255 35.132267 0.780483 2.539359 -12.495824 9.151294 2.543032 -5.058696 -8.479984 -5.282537 2.571035 -4.469447 -5.779905 -6.006968 -6.512650 -0.009649 -77.990021 14.142878 -0.374211 -34.424553 4.549933 62.811218 -14.655746 12.870860 -3.342157 13.339569 -1.662410 -0.009498 62.554993 7.421321 9.638928 41.609459 -3.639182 44.841137 -5.177612 -3.939869 0.346810 -19.742659 7.693892 4.486938 47.022175 -0.313213 -3.379458 14.913370 -1.565234 -11.815997 1.904889 0.641411 -1.804931 39.509857 0.700640 3.026609 -7.025310 6.827801 13.093389 
0.190923 49.998135 11.865984 -11.297869 -3.376750 -4.813582 34.543083 0.965456 3.018137 -12.164396 8.836154 2.946092 -5.385502 -9.215664 -4.838727 2.996728 -3.936854 -5.511182 -6.143702 -6.600517 -0.009645 -77.821899 14.411131 -1.512467 -33.544338 4.577671 63.532719 -15.370933 12.753539 -3.480532 13.525054 -2.033534 -0.009489 62.174015 8.863795 9.115276 42.589165 -3.636958 44.778759 -5.571202 -4.238716 0.402936 -20.131908 7.712864 3.725878 41.548920 -0.604748 -3.141360 13.768878 -0.069751 -12.199097 2.092757 0.943967 -1.186684 39.812668 0.681161 3.034824 -6.884042 6.749710 13.085571 
0.224003 49.915142 12.728475 -10.933904 -3.639492 -4.814812 34.256161 1.306358 3.350519 -12.261078 8.356918 3.119847 -5.151299 -9.222136 -5.076310 2.616980 -3.799366 -5.725530 -6.036205 -6.161083 -0.009655 -77.995720 14.668509 -2.439476 -32.770008 4.612951 64.686966 -16.723301 13.158348 -3.921618 13.407860 -2.072577 -0.009493 61.894073 9.864784 8.471752 43.521358 -3.618121 44.490501 -6.284513 -4.039232 0.434286 -19.780163 7.624934 2.809163 35.380302 -0.915870 -2.813015 13.112517 1.556789 -12.540520 2.669446 1.324950 -0.381460 40.124573 0.655442 3.060659 -6.923499 6.198101 13.013511 
0.257090 49.832146 13.590980 -10.579693 -3.902234 -4.816118 33.964336 1.656711 3.692966 -12.362048 7.877839 3.284139 -4.917028 -9.228446 -5.313892 2.235193 -3.652215 -5.939913 -5.918942 -5.721650 -0.009665 -78.161972 14.930652 -3.363575 -31.996124 4.674621 65.839142 -18.089373 13.561154 -4.379084 13.300431 -2.111622 -0.009497 61.613827 10.850815 7.826581 44.449326 -3.606319 44.193283 -6.997549 -3.839653 0.460745 -19.440186 7.537881 1.881856 29.236200 -1.187494 -2.440039 12.467850 3.164242 -12.860946 3.237038 1.696859 0.406448 40.436459 0.629641 3.086333 -6.964133 5.638677 12.928067 
0.297100 49.717686 14.516824 -10.461017 -4.125871 -4.846721 33.937408 1.919512 3.840314 -12.558247 7.458385 3.310502 -4.801867 -9.258056 -5.284982 2.524056 -3.030352 -5.975460 -5.782260 -5.936517 -0.009664 -77.647278 15.390913 -4.139431 -31.456951 4.693236 66.352913 -18.416140 14.195751 -4.676137 13.456666 -2.199538 -0.009490 61.551125 11.280077 7.020028 45.556793 -3.557284 43.563053 -7.417420 -3.719964 0.473767 -18.627996 7.556558 1.163723 23.767031 -1.387467 -2.163049 11.962720 3.933923 -12.960134 4.003812 1.826165 0.740922 41.226791 0.577417 3.125707 -7.711945 5.454098 12.978320 
0.337105 49.603218 15.442679 -10.351124 -4.349426 -4.887863 33.922657 2.191926 3.997189 -12.764027 7.048705 3.335830 -4.686736 -9.287663 -5.256075 2.810711 -2.398905 -6.001448 -5.634766 -6.162211 0.001038 -77.135628 15.846447 -4.909220 -30.923201 4.708724 66.868484 -18.754915 14.829946 -4.975627 13.612904 -2.277689 -0.009484 61.488499 11.722583 6.218591 46.660076 -3.519902 42.928116 -7.826898 -3.611383 0.476119 -17.812901 7.573703 0.435043 18.308725 -1.559743 -1.838797 11.447892 4.675349 -13.060997 4.762916 1.923097 1.083401 42.026924 0.551092 3.164599 -8.466718 5.274487 13.007949 
0.342313 49.425953 16.399204 -10.162167 -4.820694 -5.606328 33.756950 2.229633 4.437069 -12.842429 6.919138 3.718601 -4.401667 -9.481858 -5.278555 2.744629 -2.223967 -6.030309 -5.684652 -6.219736 -0.009660 -77.066788 16.171642 -6.050260 -30.153400 4.717935 67.406883 -18.329220 14.715993 -4.818035 13.906250 -2.197266 0.000000 61.274891 11.740122 5.243337 47.692406 -3.510562 42.855778 -8.578264 -3.373067 0.488558 -18.469730 8.024138 -0.533237 17.592823 -1.569440 -1.802600 10.085025 4.919291 -12.975512 5.306046 2.107162 1.603999 42.778351 0.508697 3.194980 -8.305070 5.759972 13.078473 
0.347537 49.248695 17.355747 -9.962363 -5.280338 -6.325913 33.582897 2.276892 4.876950 -12.931159 6.789292 4.111081 -4.104095 -9.685609 -5.310709 2.678721 -2.049010 -6.068592 -5.723725 -6.278323 -0.009659 -77.003899 16.488155 -7.185823 -29.385263 4.737052 67.951225 -17.904041 14.600596 -4.664784 14.199219 -2.119140 0.000361 61.067703 11.757193 4.278048 48.720459 -3.507090 42.781254 -9.319632 -3.135172 0.494299 -19.154652 8.464418 -1.525568 16.886002 -1.591708 -1.748986 8.733861 5.187820 -12.897243 5.853154 2.283306 2.116054 43.538494 0.453258 3.249487 -8.154631 6.239048 13.156366 
